<?xml version="1.0" standalone="no"?>
<!DOCTYPE svg PUBLIC "-//W3C//DTD SVG 20010904//EN"
 "http://www.w3.org/TR/2001/REC-SVG-20010904/DTD/svg10.dtd">
<svg version="1.0" xmlns="http://www.w3.org/2000/svg"
 width="500.000000pt" height="500.000000pt" viewBox="0 0 500.000000 500.000000"
 preserveAspectRatio="xMidYMid meet">
<metadata>
Created by potrace 1.14, written by Peter Selinger 2001-2017
</metadata>
<g transform="translate(0.000000,500.000000) scale(0.100000,-0.100000)"
fill="#000000" stroke="none">
<path d="M0 2500 l0 -2500 2500 0 2500 0 0 2500 0 2500 -2500 0 -2500 0 0
-2500z m3045 520 c165 -29 317 -69 534 -140 160 -52 195 -60 261 -60 107 0
121 -12 119 -98 0 -37 2 -75 6 -84 5 -13 2 -18 -9 -18 -9 0 -19 6 -22 14 -4
11 -26 15 -91 15 -96 0 -133 16 -133 55 0 19 9 26 51 40 29 9 76 19 106 23 74
8 48 23 -42 23 -56 0 -99 9 -210 46 -255 82 -399 121 -555 150 -140 25 -178
28 -385 28 -150 1 -254 -4 -300 -12 -123 -23 -285 -84 -454 -169 l-164 -83
-83 0 c-159 0 -292 -26 -464 -91 -98 -36 -178 -52 -155 -30 17 15 237 98 305
114 83 20 189 34 312 41 95 6 99 7 220 71 198 103 371 164 523 184 123 17 493
6 630 -19z m-246 -30 c74 -6 178 -17 230 -26 168 -26 431 -96 431 -114 0 -16
-53 -50 -102 -65 -60 -17 -134 -23 -388 -30 -107 -2 -400 -10 -651 -16 -250
-7 -464 -9 -474 -5 -16 6 -14 10 17 31 66 45 223 123 308 153 208 75 360 92
629 72z m756 -220 c-3 -6 -45 -10 -93 -9 -59 1 -79 4 -62 9 37 12 162 12 155
0z m-1588 -403 c67 -123 70 -132 50 -135 -14 -3 -29 5 -42 22 -20 25 -26 26
-111 26 -87 0 -91 -1 -102 -25 -8 -17 -20 -25 -37 -25 -14 0 -25 2 -25 5 0 3
32 64 71 135 64 116 74 130 98 130 23 0 34 -15 98 -133z m203 49 c0 -65 4 -89
18 -105 36 -46 158 -46 195 0 13 16 17 40 17 105 0 83 0 84 25 84 25 0 25 -1
25 -90 0 -108 -15 -145 -67 -166 -52 -22 -166 -20 -206 4 -47 27 -57 55 -57
160 0 92 0 92 25 92 25 0 25 -1 25 -84z m668 62 c-3 -21 -9 -23 -65 -26 l-63
-3 0 -109 0 -110 -25 0 -25 0 0 110 0 110 -65 0 c-63 0 -65 1 -65 25 l0 25
156 0 155 0 -3 -22z m356 8 c18 -7 43 -26 55 -42 19 -24 22 -38 19 -86 -7 -93
-55 -128 -178 -128 -125 0 -180 41 -180 135 0 60 24 99 74 121 41 17 168 18
210 0z m-1534 -456 c0 -19 -7 -20 -115 -20 l-115 0 0 -40 0 -40 105 0 c98 0
105 -1 105 -20 0 -19 -7 -20 -105 -20 l-105 0 0 -55 c0 -52 -1 -55 -25 -55
l-25 0 0 135 0 135 140 0 c133 0 140 -1 140 -20z m140 -68 c0 -74 3 -92 19
-106 42 -39 139 -42 183 -6 19 15 22 31 26 109 4 88 5 91 28 91 23 0 24 -2 24
-86 0 -103 -16 -145 -66 -169 -45 -21 -162 -22 -203 -1 -52 27 -61 50 -61 158
0 98 0 98 25 98 25 0 25 -1 25 -88z m659 77 c26 -9 61 -51 61 -74 0 -13 -42
-3 -59 14 -40 40 -221 36 -221 -4 0 -16 42 -28 153 -43 90 -11 117 -29 117
-77 0 -45 -28 -66 -97 -74 -96 -11 -163 3 -195 39 -35 38 -35 50 -3 50 14 0
25 -5 25 -11 0 -5 17 -17 37 -26 44 -18 152 -14 177 7 29 23 -2 38 -110 53
-116 17 -139 26 -148 62 -9 34 9 64 47 80 39 17 172 19 216 4z m231 -124 c0
-128 -1 -135 -20 -135 -19 0 -20 7 -20 135 0 128 1 135 20 135 19 0 20 -7 20
-135z m431 114 c66 -33 87 -122 46 -190 -36 -60 -193 -82 -277 -39 -91 47 -93
181 -3 229 54 29 178 29 234 0z m350 -85 l94 -107 3 107 c3 105 3 106 27 106
l25 0 0 -135 0 -135 -33 0 c-28 0 -43 12 -127 107 l-95 106 -3 -106 c-3 -106
-3 -107 -27 -107 l-25 0 0 128 c0 71 3 132 7 135 3 4 18 7 33 7 21 0 46 -22
121 -106z m-2151 -14 c0 -6 -28 -10 -65 -10 -37 0 -65 4 -65 10 0 6 28 10 65
10 37 0 65 -4 65 -10z m2490 0 c0 -6 -28 -10 -65 -10 -37 0 -65 4 -65 10 0 6
28 10 65 10 37 0 65 -4 65 -10z"/>
<path d="M3811 2724 c-29 -8 -58 -17 -63 -20 -22 -14 20 -24 100 -24 l82 0 0
30 c0 27 -3 30 -32 29 -18 0 -57 -7 -87 -15z"/>
<path d="M2480 2973 c-105 -11 -272 -54 -370 -96 -47 -20 -53 -28 -33 -42 11
-8 17 -26 16 -50 l-1 -38 81 7 c45 3 142 6 215 6 128 0 133 1 141 23 8 21 52
159 59 185 3 12 -27 14 -108 5z"/>
<path d="M2706 2919 c-3 -34 -6 -82 -6 -107 l0 -45 242 7 c133 3 244 9 247 11
6 6 -125 142 -150 155 -13 7 -274 40 -317 40 -5 0 -12 -28 -16 -61z"/>
<path d="M3155 2858 c67 -70 69 -72 114 -69 56 2 135 27 151 46 13 15 -42 34
-210 75 -130 31 -132 30 -55 -52z"/>
<path d="M2622 2856 c-14 -76 -15 -104 -3 -90 8 9 26 154 18 154 -2 0 -9 -29
-15 -64z"/>
<path d="M1905 2770 l-30 -20 38 0 c30 0 37 4 37 20 0 25 -7 25 -45 0z"/>
<path d="M1830 2380 l-30 -60 65 0 c36 0 65 2 65 5 0 12 -55 115 -62 115 -4 0
-21 -27 -38 -60z"/>
<path d="M3020 2449 c-45 -19 -60 -40 -60 -85 0 -31 6 -49 21 -63 43 -39 181
-39 220 0 30 30 23 105 -12 131 -31 23 -131 33 -169 17z"/>
<path d="M2933 1999 c-58 -17 -82 -87 -48 -136 41 -59 212 -54 244 5 50 93
-65 169 -196 131z"/>
</g>
</svg>
